<svg xmlns="http://www.w3.org/2000/svg" viewBox="0 0 512 512" width="512" height="512">
  <defs>
    <linearGradient id="bgGrad" x1="0%" y1="0%" x2="100%" y2="100%">
      <stop offset="0%" stop-color="#f43f5e"/>
      <stop offset="50%" stop-color="#a855f7"/>
      <stop offset="100%" stop-color="#ec4899"/>
    </linearGradient>
    <linearGradient id="innerGrad" x1="0%" y1="0%" x2="100%" y2="100%">
      <stop offset="0%" stop-color="#18181b"/>
      <stop offset="100%" stop-color="#09090b"/>
    </linearGradient>
    <filter id="glow" x="-20%" y="-20%" width="140%" height="140%">
      <feGaussianBlur stdDeviation="16" result="blur"/>
      <feComposite in="SourceGraphic" in2="blur" operator="over"/>
    </filter>
  </defs>

  <!-- Background Base -->
  <rect width="512" height="512" rx="128" fill="url(#bgGrad)" />
  <rect x="16" y="16" width="480" height="480" rx="112" fill="url(#innerGrad)" stroke="rgba(255,255,255,0.15)" stroke-width="4" />

  <!-- Central RPG Emblem / Sparkle -->
  <g transform="translate(256, 256)" filter="url(#glow)">
    <!-- 4-point Diamond Star -->
    <path d="M 0 -130 Q 15 -35 85 -10 Q 15 15 0 130 Q -15 15 -85 -10 Q -15 -35 0 -130 Z" fill="url(#bgGrad)" />
    <!-- Secondary diagonal accent star -->
    <path d="M 0 -70 Q 10 -20 50 -5 Q 10 10 0 70 Q -10 10 -50 -5 Q -10 -20 0 -70 Z" fill="#ffffff" opacity="0.9" transform="rotate(45)" />
    <!-- Core Bright Dot -->
    <circle cx="0" cy="0" r="18" fill="#ffffff" />
  </g>

  <!-- Text RPG Subtitle -->
  <text x="256" y="420" font-family="system-ui, -apple-system, sans-serif" font-size="52" font-weight="900" text-anchor="middle" fill="#ffffff" letter-spacing="8">RPG</text>
</svg>